<?xml version="1.0" encoding="utf-8"?>
<!-- Generator: Adobe Illustrator 21.0.0, SVG Export Plug-In . SVG Version: 6.00 Build 0)  -->
<svg version="1.1" id="Layer_1" xmlns="http://www.w3.org/2000/svg" xmlns:xlink="http://www.w3.org/1999/xlink" x="0px" y="0px"
	 viewBox="0 0 261.8 70" style="enable-background:new 0 0 261.8 70;" xml:space="preserve">
<style type="text/css">
	.st0{fill:#0074C8;}
	.st1{fill:#27AE60;}
	.st2{fill:#5215A0;}
	.st3{fill:#643579;}
	.st4{fill:#E74C3C;}
	.st5{fill:#FC5B1F;}
	.st6{fill:#FFF042;}
	.st7{fill:#FFFFFF;}
</style>
<g>
	<polygon class="st0" points="35.1,70 0,70 16.1,0 51.2,0 	"/>
	<polygon class="st1" points="70.2,70 35.1,70 51.2,0 86.3,0 	"/>
	<polygon class="st2" points="105.3,70 70.2,70 86.3,0 121.4,0 	"/>
	<polygon class="st3" points="140.4,70 105.3,70 121.4,0 156.5,0 	"/>
	<polygon class="st4" points="175.5,70 140.4,70 156.5,0 191.6,0 	"/>
	<polygon class="st5" points="210.6,70 175.5,70 191.6,0 226.7,0 	"/>
	<polygon class="st6" points="245.7,70 210.6,70 226.7,0 261.8,0 	"/>
</g>
<g>
	<path class="st7" d="M59.7,48V22.3h16.5v5.4H66v4.9h8.1V38H66V48H59.7z"/>
	<path class="st7" d="M90.5,30.6h5.9V48h-5.9v-2c-1.1,1.5-2.9,2.3-4.8,2.3c-4.3,0-8.5-3.4-8.5-9s4.2-9.1,8.5-9.1
		c1.8,0,3.7,0.8,4.8,2.3V30.6z M81,24.1c0,1.5,1.3,2.7,2.9,2.7c1.6,0,2.8-1.2,2.8-2.7c0-1.5-1.2-2.7-2.8-2.7
		C82.3,21.4,81,22.6,81,24.1z M83.2,39.3c0,2,1.6,3.6,3.6,3.6c2,0,3.6-1.6,3.6-3.6c0-2-1.6-3.6-3.6-3.6
		C84.9,35.7,83.2,37.3,83.2,39.3z M88,24.1c0,1.5,1.3,2.7,2.9,2.7c1.5,0,2.8-1.2,2.8-2.7c0-1.5-1.2-2.7-2.8-2.7
		C89.3,21.4,88,22.6,88,24.1z"/>
	<path class="st7" d="M106.8,48h-5.9V30.6h5.6v4.3c0.9-3.3,3.2-4.7,5.5-4.7c0.7,0,1.6,0,2.6,0.5l-1.5,5.6c-1.2-0.4-2.2-0.4-2.7-0.4
		c-2.2,0-3.6,1.3-3.6,6.5V48z"/>
	<path class="st7" d="M120.8,49.1c0.6,1.3,2,2.3,3.8,2.3c2.9,0,4.6-1.9,4.6-5.6c-0.8,1.5-2.7,2.5-5.3,2.5c-4.3,0-8.5-3.4-8.5-9
		s4.2-9.1,8.5-9.1c1.8,0,3.7,0.8,4.8,2.3v-1.9h5.9v15.2c0,7.2-3.6,11-10,11c-4.1,0-7.5-2.4-8.8-5.7L120.8,49.1z M125.1,42.9
		c2,0,3.6-1.6,3.6-3.6c0-2-1.6-3.6-3.6-3.6s-3.6,1.6-3.6,3.6C121.5,41.3,123.1,42.9,125.1,42.9z"/>
	<path class="st7" d="M143.8,41.2c-5.4-1.5-5.4-4.6-5.4-5.8c0-2.6,3.2-5.2,7.1-5.2c3.6,0,7.6,1.5,7.6,6h-5.5c0-1.1-0.6-1.6-1.7-1.6
		c-0.7,0-1.5,0.3-1.5,1c0,0.4,0.2,0.9,1.3,1.1l3.1,0.9c4.5,1.2,4.8,4.1,4.8,5.3c0,3.8-4.2,5.5-7.9,5.5c-3.7,0-7.6-2.2-7.6-6.1h5.5
		c0,0.7,0.6,1.8,2,1.8c1,0,1.8-0.4,1.8-1.2c0-0.5-0.3-0.7-1.6-1L143.8,41.2z"/>
	<path class="st7" d="M169.3,30.6h5.9V48h-5.9v-2c-1.1,1.5-2.9,2.3-4.8,2.3c-4.3,0-8.5-3.4-8.5-9s4.2-9.1,8.5-9.1
		c1.8,0,3.7,0.8,4.8,2.3V30.6z M159.8,24.1c0,1.5,1.3,2.7,2.9,2.7s2.8-1.2,2.8-2.7c0-1.5-1.2-2.7-2.8-2.7S159.8,22.6,159.8,24.1z
		 M162.1,39.3c0,2,1.6,3.6,3.6,3.6c2,0,3.6-1.6,3.6-3.6c0-2-1.6-3.6-3.6-3.6C163.7,35.7,162.1,37.3,162.1,39.3z M166.8,24.1
		c0,1.5,1.3,2.7,2.9,2.7c1.5,0,2.8-1.2,2.8-2.7c0-1.5-1.2-2.7-2.8-2.7C168.1,21.4,166.8,22.6,166.8,24.1z"/>
	<path class="st7" d="M187.2,30.6h3.6V35h-3.6v13h-5.8V35h-3.2v-4.4h3.2v-6.2h5.8V30.6z"/>
	<path class="st7" d="M201.3,30.6h3.6V35h-3.6v13h-5.8V35h-3.2v-4.4h3.2v-6.2h5.8V30.6z"/>
</g>
</svg>
